<svg aria-roledescription="er" role="graphics-document document" viewBox="0 0 735.0757446289062 1110" style="max-width: 735.076px; background-color: rgb(255, 255, 255);" xmlns:xlink="http://www.w3.org/1999/xlink" xmlns="http://www.w3.org/2000/svg" width="100%" id="mermaid-1684084913977"><style>#mermaid-1684084913977{font-family:"trebuchet ms",verdana,arial,sans-serif;font-size:16px;fill:#333;}#mermaid-1684084913977 .error-icon{fill:#552222;}#mermaid-1684084913977 .error-text{fill:#552222;stroke:#552222;}#mermaid-1684084913977 .edge-thickness-normal{stroke-width:2px;}#mermaid-1684084913977 .edge-thickness-thick{stroke-width:3.5px;}#mermaid-1684084913977 .edge-pattern-solid{stroke-dasharray:0;}#mermaid-1684084913977 .edge-pattern-dashed{stroke-dasharray:3;}#mermaid-1684084913977 .edge-pattern-dotted{stroke-dasharray:2;}#mermaid-1684084913977 .marker{fill:#333333;stroke:#333333;}#mermaid-1684084913977 .marker.cross{stroke:#333333;}#mermaid-1684084913977 svg{font-family:"trebuchet ms",verdana,arial,sans-serif;font-size:16px;}#mermaid-1684084913977 .entityBox{fill:#ECECFF;stroke:#9370DB;}#mermaid-1684084913977 .attributeBoxOdd{fill:#ffffff;stroke:#9370DB;}#mermaid-1684084913977 .attributeBoxEven{fill:#f2f2f2;stroke:#9370DB;}#mermaid-1684084913977 .relationshipLabelBox{fill:hsl(80, 100%, 96.2745098039%);opacity:0.7;background-color:hsl(80, 100%, 96.2745098039%);}#mermaid-1684084913977 .relationshipLabelBox rect{opacity:0.5;}#mermaid-1684084913977 .relationshipLine{stroke:#333333;}#mermaid-1684084913977 .entityTitleText{text-anchor:middle;font-size:18px;fill:#333;}#mermaid-1684084913977 :root{--mermaid-font-family:"trebuchet ms",verdana,arial,sans-serif;}</style><g/><defs><marker orient="auto" markerHeight="18" markerWidth="18" refY="9" refX="0" id="ONLY_ONE_START"><path d="M9,0 L9,18 M15,0 L15,18" fill="none" stroke="gray"/></marker></defs><defs><marker orient="auto" markerHeight="18" markerWidth="18" refY="9" refX="18" id="ONLY_ONE_END"><path d="M3,0 L3,18 M9,0 L9,18" fill="none" stroke="gray"/></marker></defs><defs><marker orient="auto" markerHeight="18" markerWidth="30" refY="9" refX="0" id="ZERO_OR_ONE_START"><circle r="6" cy="9" cx="21" fill="white" stroke="gray"/><path d="M9,0 L9,18" fill="none" stroke="gray"/></marker></defs><defs><marker orient="auto" markerHeight="18" markerWidth="30" refY="9" refX="30" id="ZERO_OR_ONE_END"><circle r="6" cy="9" cx="9" fill="white" stroke="gray"/><path d="M21,0 L21,18" fill="none" stroke="gray"/></marker></defs><defs><marker orient="auto" markerHeight="36" markerWidth="45" refY="18" refX="18" id="ONE_OR_MORE_START"><path d="M0,18 Q 18,0 36,18 Q 18,36 0,18 M42,9 L42,27" fill="none" stroke="gray"/></marker></defs><defs><marker orient="auto" markerHeight="36" markerWidth="45" refY="18" refX="27" id="ONE_OR_MORE_END"><path d="M3,9 L3,27 M9,18 Q27,0 45,18 Q27,36 9,18" fill="none" stroke="gray"/></marker></defs><defs><marker orient="auto" markerHeight="36" markerWidth="57" refY="18" refX="18" id="ZERO_OR_MORE_START"><circle r="6" cy="18" cx="48" fill="white" stroke="gray"/><path d="M0,18 Q18,0 36,18 Q18,36 0,18" fill="none" stroke="gray"/></marker></defs><defs><marker orient="auto" markerHeight="36" markerWidth="57" refY="18" refX="39" id="ZERO_OR_MORE_END"><circle r="6" cy="18" cx="9" fill="white" stroke="gray"/><path d="M21,18 Q39,0 57,18 Q39,36 21,18" fill="none" stroke="gray"/></marker></defs><path style="stroke: gray; fill: none;" marker-start="url(#ZERO_OR_MORE_START)" marker-end="url(#ONLY_ONE_END)" d="M327.4573669433594,900L327.4573669433594,908.3333333333334C327.4573669433594,916.6666666666666,327.4573669433594,933.3333333333334,339.642847161544,950C351.8283273797286,966.6666666666666,376.19928781609786,983.3333333333334,388.38476803428244,991.6666666666666L400.5702482524671,1000" class="er relationshipLine"/><path style="stroke: gray; fill: none;" marker-start="url(#ONLY_ONE_START)" marker-end="url(#ZERO_OR_MORE_END)" d="M191.63824462890625,622L191.63824462890625,630.3333333333334C191.63824462890625,638.6666666666666,191.63824462890625,655.3333333333334,199.7808778611876,672C207.92351109346896,688.6666666666666,224.2087775580317,705.3333333333334,232.35141079031305,713.6666666666666L240.49404402259444,722" class="er relationshipLine"/><path style="stroke: gray; fill: none;" marker-start="url(#ZERO_OR_MORE_START)" marker-end="url(#ONLY_ONE_END)" d="M191.63824462890625,432L191.63824462890625,440.3333333333333C191.63824462890625,448.6666666666667,191.63824462890625,465.3333333333333,191.63824462890625,482C191.63824462890625,498.6666666666667,191.63824462890625,515.3333333333334,191.63824462890625,523.6666666666666L191.63824462890625,532" class="er relationshipLine"/><path style="stroke: gray; fill: none;" marker-start="url(#ZERO_OR_MORE_START)" marker-end="url(#ONLY_ONE_END)" d="M363.2764892578125,387.90182323478916L411.4289016723633,403.5848526956576C459.58131408691406,419.2678821565261,555.8861389160156,450.63394107826304,604.0385513305664,482.1503038724648C652.1909637451172,513.6666666666666,652.1909637451172,545.3333333333334,652.1909637451172,577C652.1909637451172,608.6666666666666,652.1909637451172,640.3333333333334,652.1909637451172,679.3333333333334C652.1909637451172,718.3333333333334,652.1909637451172,764.6666666666666,652.1909637451172,811C652.1909637451172,857.3333333333334,652.1909637451172,903.6666666666666,634.1903648376465,936.0361369786755C616.1897659301758,968.4056072906842,580.1885681152344,986.8112145813684,562.1879692077637,996.0140182267105L544.187370300293,1005.2168218720525" class="er relationshipLine"/><path style="stroke: gray; fill: none;" marker-start="url(#ONLY_ONE_START)" marker-end="url(#ZERO_OR_MORE_END)" d="M283.8927428047612,110L268.51699310878536,122C253.14124341280956,134,222.38974402085788,158,207.01399432488208,178.33333333333334C191.63824462890625,198.66666666666666,191.63824462890625,215.33333333333334,191.63824462890625,223.66666666666666L191.63824462890625,232" class="er relationshipLine"/><path style="stroke: gray; fill: none;" marker-start="url(#ONLY_ONE_START)" marker-end="url(#ZERO_OR_MORE_END)" d="M371.02199108195754,110L386.3977407779334,122C401.77349047390925,134,432.52498986586085,158,447.90073956183664,195C463.2764892578125,232,463.2764892578125,282,463.2764892578125,332C463.2764892578125,382,463.2764892578125,432,463.2764892578125,472.8333333333333C463.2764892578125,513.6666666666666,463.2764892578125,545.3333333333334,463.2764892578125,577C463.2764892578125,608.6666666666666,463.2764892578125,640.3333333333334,455.1338560255311,664.5C446.9912227932498,688.6666666666666,430.7059563286871,705.3333333333334,422.56332309640567,713.6666666666666L414.4206898641243,722" class="er relationshipLine"/><g transform="translate(149.62841796875,722 )" id="entity-votante-33e7704b-4c24-5fdd-92a7-fa7423084b35"><rect height="178" width="355.65789794921875" y="0" x="0" class="er entityBox"/><text style="dominant-baseline: middle; text-anchor: middle; font-size: 12px;" transform="translate(177.82894897460938,12)" y="0" x="0" id="text-entity-votante-33e7704b-4c24-5fdd-92a7-fa7423084b35" class="er entityLabel">votante</text><rect height="22" width="63.70890808105469" y="24" x="0" class="er attributeBoxOdd"/><text style="dominant-baseline: middle; font-size: 10.2px;" transform="translate(5,35)" y="0" x="0" id="text-entity-votante-33e7704b-4c24-5fdd-92a7-fa7423084b35-attr-1-type" class="er entityLabel">varchar(20)</text><rect height="22" width="113.35804748535156" y="24" x="63.70890808105469" class="er attributeBoxOdd"/><text style="dominant-baseline: middle; font-size: 10.2px;" transform="translate(68.70890808105469,35)" y="0" x="0" id="text-entity-votante-33e7704b-4c24-5fdd-92a7-fa7423084b35-attr-1-name" class="er entityLabel">noDocumento_votante</text><rect height="22" width="22.68768310546875" y="24" x="177.06695556640625" class="er attributeBoxOdd"/><text style="dominant-baseline: middle; font-size: 10.2px;" transform="translate(182.06695556640625,35)" y="0" x="0" id="text-entity-votante-33e7704b-4c24-5fdd-92a7-fa7423084b35-attr-1-key" class="er entityLabel">PK</text><rect height="22" width="155.90325927734375" y="24" x="199.754638671875" class="er attributeBoxOdd"/><text style="dominant-baseline: middle; font-size: 10.2px;" transform="translate(204.754638671875,35)" y="0" x="0" id="text-entity-votante-33e7704b-4c24-5fdd-92a7-fa7423084b35-attr-1-comment" class="er entityLabel"/><rect height="22" width="63.70890808105469" y="46" x="0" class="er attributeBoxEven"/><text style="dominant-baseline: middle; font-size: 10.2px;" transform="translate(5,57)" y="0" x="0" id="text-entity-votante-33e7704b-4c24-5fdd-92a7-fa7423084b35-attr-2-type" class="er entityLabel">varcahr(50)</text><rect height="22" width="113.35804748535156" y="46" x="63.70890808105469" class="er attributeBoxEven"/><text style="dominant-baseline: middle; font-size: 10.2px;" transform="translate(68.70890808105469,57)" y="0" x="0" id="text-entity-votante-33e7704b-4c24-5fdd-92a7-fa7423084b35-attr-2-name" class="er entityLabel">nombres_votante</text><rect height="22" width="22.68768310546875" y="46" x="177.06695556640625" class="er attributeBoxEven"/><text style="dominant-baseline: middle; font-size: 10.2px;" transform="translate(182.06695556640625,57)" y="0" x="0" id="text-entity-votante-33e7704b-4c24-5fdd-92a7-fa7423084b35-attr-2-key" class="er entityLabel"/><rect height="22" width="155.90325927734375" y="46" x="199.754638671875" class="er attributeBoxEven"/><text style="dominant-baseline: middle; font-size: 10.2px;" transform="translate(204.754638671875,57)" y="0" x="0" id="text-entity-votante-33e7704b-4c24-5fdd-92a7-fa7423084b35-attr-2-comment" class="er entityLabel"/><rect height="22" width="63.70890808105469" y="68" x="0" class="er attributeBoxOdd"/><text style="dominant-baseline: middle; font-size: 10.2px;" transform="translate(5,79)" y="0" x="0" id="text-entity-votante-33e7704b-4c24-5fdd-92a7-fa7423084b35-attr-3-type" class="er entityLabel">varchar(50)</text><rect height="22" width="113.35804748535156" y="68" x="63.70890808105469" class="er attributeBoxOdd"/><text style="dominant-baseline: middle; font-size: 10.2px;" transform="translate(68.70890808105469,79)" y="0" x="0" id="text-entity-votante-33e7704b-4c24-5fdd-92a7-fa7423084b35-attr-3-name" class="er entityLabel">apellidos_votante</text><rect height="22" width="22.68768310546875" y="68" x="177.06695556640625" class="er attributeBoxOdd"/><text style="dominant-baseline: middle; font-size: 10.2px;" transform="translate(182.06695556640625,79)" y="0" x="0" id="text-entity-votante-33e7704b-4c24-5fdd-92a7-fa7423084b35-attr-3-key" class="er entityLabel"/><rect height="22" width="155.90325927734375" y="68" x="199.754638671875" class="er attributeBoxOdd"/><text style="dominant-baseline: middle; font-size: 10.2px;" transform="translate(204.754638671875,79)" y="0" x="0" id="text-entity-votante-33e7704b-4c24-5fdd-92a7-fa7423084b35-attr-3-comment" class="er entityLabel"/><rect height="22" width="63.70890808105469" y="90" x="0" class="er attributeBoxEven"/><text style="dominant-baseline: middle; font-size: 10.2px;" transform="translate(5,101)" y="0" x="0" id="text-entity-votante-33e7704b-4c24-5fdd-92a7-fa7423084b35-attr-4-type" class="er entityLabel">varchar(20)</text><rect height="22" width="113.35804748535156" y="90" x="63.70890808105469" class="er attributeBoxEven"/><text style="dominant-baseline: middle; font-size: 10.2px;" transform="translate(68.70890808105469,101)" y="0" x="0" id="text-entity-votante-33e7704b-4c24-5fdd-92a7-fa7423084b35-attr-4-name" class="er entityLabel">id_tipo_documento_id</text><rect height="22" width="22.68768310546875" y="90" x="177.06695556640625" class="er attributeBoxEven"/><text style="dominant-baseline: middle; font-size: 10.2px;" transform="translate(182.06695556640625,101)" y="0" x="0" id="text-entity-votante-33e7704b-4c24-5fdd-92a7-fa7423084b35-attr-4-key" class="er entityLabel">FK</text><rect height="22" width="155.90325927734375" y="90" x="199.754638671875" class="er attributeBoxEven"/><text style="dominant-baseline: middle; font-size: 10.2px;" transform="translate(204.754638671875,101)" y="0" x="0" id="text-entity-votante-33e7704b-4c24-5fdd-92a7-fa7423084b35-attr-4-comment" class="er entityLabel">Ref:genero(id_tipo_documento)</text><rect height="22" width="63.70890808105469" y="112" x="0" class="er attributeBoxOdd"/><text style="dominant-baseline: middle; font-size: 10.2px;" transform="translate(5,123)" y="0" x="0" id="text-entity-votante-33e7704b-4c24-5fdd-92a7-fa7423084b35-attr-5-type" class="er entityLabel">varchar(10)</text><rect height="22" width="113.35804748535156" y="112" x="63.70890808105469" class="er attributeBoxOdd"/><text style="dominant-baseline: middle; font-size: 10.2px;" transform="translate(68.70890808105469,123)" y="0" x="0" id="text-entity-votante-33e7704b-4c24-5fdd-92a7-fa7423084b35-attr-5-name" class="er entityLabel">id_genero_votante</text><rect height="22" width="22.68768310546875" y="112" x="177.06695556640625" class="er attributeBoxOdd"/><text style="dominant-baseline: middle; font-size: 10.2px;" transform="translate(182.06695556640625,123)" y="0" x="0" id="text-entity-votante-33e7704b-4c24-5fdd-92a7-fa7423084b35-attr-5-key" class="er entityLabel">FK</text><rect height="22" width="155.90325927734375" y="112" x="199.754638671875" class="er attributeBoxOdd"/><text style="dominant-baseline: middle; font-size: 10.2px;" transform="translate(204.754638671875,123)" y="0" x="0" id="text-entity-votante-33e7704b-4c24-5fdd-92a7-fa7423084b35-attr-5-comment" class="er entityLabel">Ref:genero(id_genero)</text><rect height="22" width="63.70890808105469" y="134" x="0" class="er attributeBoxEven"/><text style="dominant-baseline: middle; font-size: 10.2px;" transform="translate(5,145)" y="0" x="0" id="text-entity-votante-33e7704b-4c24-5fdd-92a7-fa7423084b35-attr-6-type" class="er entityLabel">varchar(20)</text><rect height="22" width="113.35804748535156" y="134" x="63.70890808105469" class="er attributeBoxEven"/><text style="dominant-baseline: middle; font-size: 10.2px;" transform="translate(68.70890808105469,145)" y="0" x="0" id="text-entity-votante-33e7704b-4c24-5fdd-92a7-fa7423084b35-attr-6-name" class="er entityLabel">id_localidad_votante</text><rect height="22" width="22.68768310546875" y="134" x="177.06695556640625" class="er attributeBoxEven"/><text style="dominant-baseline: middle; font-size: 10.2px;" transform="translate(182.06695556640625,145)" y="0" x="0" id="text-entity-votante-33e7704b-4c24-5fdd-92a7-fa7423084b35-attr-6-key" class="er entityLabel">FK</text><rect height="22" width="155.90325927734375" y="134" x="199.754638671875" class="er attributeBoxEven"/><text style="dominant-baseline: middle; font-size: 10.2px;" transform="translate(204.754638671875,145)" y="0" x="0" id="text-entity-votante-33e7704b-4c24-5fdd-92a7-fa7423084b35-attr-6-comment" class="er entityLabel">Ref:localidad(id_localidad)</text><rect height="22" width="63.70890808105469" y="156" x="0" class="er attributeBoxOdd"/><text style="dominant-baseline: middle; font-size: 10.2px;" transform="translate(5,167)" y="0" x="0" id="text-entity-votante-33e7704b-4c24-5fdd-92a7-fa7423084b35-attr-7-type" class="er entityLabel">boolean</text><rect height="22" width="113.35804748535156" y="156" x="63.70890808105469" class="er attributeBoxOdd"/><text style="dominant-baseline: middle; font-size: 10.2px;" transform="translate(68.70890808105469,167)" y="0" x="0" id="text-entity-votante-33e7704b-4c24-5fdd-92a7-fa7423084b35-attr-7-name" class="er entityLabel">estado</text><rect height="22" width="22.68768310546875" y="156" x="177.06695556640625" class="er attributeBoxOdd"/><text style="dominant-baseline: middle; font-size: 10.2px;" transform="translate(182.06695556640625,167)" y="0" x="0" id="text-entity-votante-33e7704b-4c24-5fdd-92a7-fa7423084b35-attr-7-key" class="er entityLabel"/><rect height="22" width="155.90325927734375" y="156" x="199.754638671875" class="er attributeBoxOdd"/><text style="dominant-baseline: middle; font-size: 10.2px;" transform="translate(204.754638671875,167)" y="0" x="0" id="text-entity-votante-33e7704b-4c24-5fdd-92a7-fa7423084b35-attr-7-comment" class="er entityLabel"/></g><g transform="translate(97.30501556396484,532 )" id="entity-tipodocumento-4a1942b5-88ec-50e0-b601-39d8dc5dcd2a"><rect height="90" width="188.6664581298828" y="0" x="0" class="er entityBox"/><text style="dominant-baseline: middle; text-anchor: middle; font-size: 12px;" transform="translate(94.3332290649414,12)" y="0" x="0" id="text-entity-tipodocumento-4a1942b5-88ec-50e0-b601-39d8dc5dcd2a" class="er entityLabel">tipodocumento</text><rect height="22" width="63.70890808105469" y="24" x="0" class="er attributeBoxOdd"/><text style="dominant-baseline: middle; font-size: 10.2px;" transform="translate(5,35)" y="0" x="0" id="text-entity-tipodocumento-4a1942b5-88ec-50e0-b601-39d8dc5dcd2a-attr-1-type" class="er entityLabel">int</text><rect height="22" width="124.95755004882812" y="24" x="63.70890808105469" class="er attributeBoxOdd"/><text style="dominant-baseline: middle; font-size: 10.2px;" transform="translate(68.70890808105469,35)" y="0" x="0" id="text-entity-tipodocumento-4a1942b5-88ec-50e0-b601-39d8dc5dcd2a-attr-1-name" class="er entityLabel">id_tipo_documento</text><rect height="22" width="63.70890808105469" y="46" x="0" class="er attributeBoxEven"/><text style="dominant-baseline: middle; font-size: 10.2px;" transform="translate(5,57)" y="0" x="0" id="text-entity-tipodocumento-4a1942b5-88ec-50e0-b601-39d8dc5dcd2a-attr-2-type" class="er entityLabel">varchar(50)</text><rect height="22" width="124.95755004882812" y="46" x="63.70890808105469" class="er attributeBoxEven"/><text style="dominant-baseline: middle; font-size: 10.2px;" transform="translate(68.70890808105469,57)" y="0" x="0" id="text-entity-tipodocumento-4a1942b5-88ec-50e0-b601-39d8dc5dcd2a-attr-2-name" class="er entityLabel">nombre_tipo_documento</text><rect height="22" width="63.70890808105469" y="68" x="0" class="er attributeBoxOdd"/><text style="dominant-baseline: middle; font-size: 10.2px;" transform="translate(5,79)" y="0" x="0" id="text-entity-tipodocumento-4a1942b5-88ec-50e0-b601-39d8dc5dcd2a-attr-3-type" class="er entityLabel">boolean</text><rect height="22" width="124.95755004882812" y="68" x="63.70890808105469" class="er attributeBoxOdd"/><text style="dominant-baseline: middle; font-size: 10.2px;" transform="translate(68.70890808105469,79)" y="0" x="0" id="text-entity-tipodocumento-4a1942b5-88ec-50e0-b601-39d8dc5dcd2a-attr-3-name" class="er entityLabel">estado</text></g><g transform="translate(20,232 )" id="entity-candidato-ed21d027-6009-559e-b38b-7f976c803933"><rect height="200" width="343.27647399902344" y="0" x="0" class="er entityBox"/><text style="dominant-baseline: middle; text-anchor: middle; font-size: 12px;" transform="translate(171.63823699951172,12)" y="0" x="0" id="text-entity-candidato-ed21d027-6009-559e-b38b-7f976c803933" class="er entityLabel">candidato</text><rect height="22" width="63.70890808105469" y="24" x="0" class="er attributeBoxOdd"/><text style="dominant-baseline: middle; font-size: 10.2px;" transform="translate(5,35)" y="0" x="0" id="text-entity-candidato-ed21d027-6009-559e-b38b-7f976c803933-attr-1-type" class="er entityLabel">varchar(20)</text><rect height="22" width="123.52815246582031" y="24" x="63.70890808105469" class="er attributeBoxOdd"/><text style="dominant-baseline: middle; font-size: 10.2px;" transform="translate(68.70890808105469,35)" y="0" x="0" id="text-entity-candidato-ed21d027-6009-559e-b38b-7f976c803933-attr-1-name" class="er entityLabel">noDocumento_candidato</text><rect height="22" width="22.68768310546875" y="24" x="187.237060546875" class="er attributeBoxOdd"/><text style="dominant-baseline: middle; font-size: 10.2px;" transform="translate(192.237060546875,35)" y="0" x="0" id="text-entity-candidato-ed21d027-6009-559e-b38b-7f976c803933-attr-1-key" class="er entityLabel">PK</text><rect height="22" width="133.3517303466797" y="24" x="209.92474365234375" class="er attributeBoxOdd"/><text style="dominant-baseline: middle; font-size: 10.2px;" transform="translate(214.92474365234375,35)" y="0" x="0" id="text-entity-candidato-ed21d027-6009-559e-b38b-7f976c803933-attr-1-comment" class="er entityLabel"/><rect height="22" width="63.70890808105469" y="46" x="0" class="er attributeBoxEven"/><text style="dominant-baseline: middle; font-size: 10.2px;" transform="translate(5,57)" y="0" x="0" id="text-entity-candidato-ed21d027-6009-559e-b38b-7f976c803933-attr-2-type" class="er entityLabel">varcahr(50)</text><rect height="22" width="123.52815246582031" y="46" x="63.70890808105469" class="er attributeBoxEven"/><text style="dominant-baseline: middle; font-size: 10.2px;" transform="translate(68.70890808105469,57)" y="0" x="0" id="text-entity-candidato-ed21d027-6009-559e-b38b-7f976c803933-attr-2-name" class="er entityLabel">nombres_candidato</text><rect height="22" width="22.68768310546875" y="46" x="187.237060546875" class="er attributeBoxEven"/><text style="dominant-baseline: middle; font-size: 10.2px;" transform="translate(192.237060546875,57)" y="0" x="0" id="text-entity-candidato-ed21d027-6009-559e-b38b-7f976c803933-attr-2-key" class="er entityLabel"/><rect height="22" width="133.3517303466797" y="46" x="209.92474365234375" class="er attributeBoxEven"/><text style="dominant-baseline: middle; font-size: 10.2px;" transform="translate(214.92474365234375,57)" y="0" x="0" id="text-entity-candidato-ed21d027-6009-559e-b38b-7f976c803933-attr-2-comment" class="er entityLabel"/><rect height="22" width="63.70890808105469" y="68" x="0" class="er attributeBoxOdd"/><text style="dominant-baseline: middle; font-size: 10.2px;" transform="translate(5,79)" y="0" x="0" id="text-entity-candidato-ed21d027-6009-559e-b38b-7f976c803933-attr-3-type" class="er entityLabel">varchar(50)</text><rect height="22" width="123.52815246582031" y="68" x="63.70890808105469" class="er attributeBoxOdd"/><text style="dominant-baseline: middle; font-size: 10.2px;" transform="translate(68.70890808105469,79)" y="0" x="0" id="text-entity-candidato-ed21d027-6009-559e-b38b-7f976c803933-attr-3-name" class="er entityLabel">apellidos_candidato</text><rect height="22" width="22.68768310546875" y="68" x="187.237060546875" class="er attributeBoxOdd"/><text style="dominant-baseline: middle; font-size: 10.2px;" transform="translate(192.237060546875,79)" y="0" x="0" id="text-entity-candidato-ed21d027-6009-559e-b38b-7f976c803933-attr-3-key" class="er entityLabel"/><rect height="22" width="133.3517303466797" y="68" x="209.92474365234375" class="er attributeBoxOdd"/><text style="dominant-baseline: middle; font-size: 10.2px;" transform="translate(214.92474365234375,79)" y="0" x="0" id="text-entity-candidato-ed21d027-6009-559e-b38b-7f976c803933-attr-3-comment" class="er entityLabel"/><rect height="22" width="63.70890808105469" y="90" x="0" class="er attributeBoxEven"/><text style="dominant-baseline: middle; font-size: 10.2px;" transform="translate(5,101)" y="0" x="0" id="text-entity-candidato-ed21d027-6009-559e-b38b-7f976c803933-attr-4-type" class="er entityLabel">varchar(20)</text><rect height="22" width="123.52815246582031" y="90" x="63.70890808105469" class="er attributeBoxEven"/><text style="dominant-baseline: middle; font-size: 10.2px;" transform="translate(68.70890808105469,101)" y="0" x="0" id="text-entity-candidato-ed21d027-6009-559e-b38b-7f976c803933-attr-4-name" class="er entityLabel">id_tipo_documento</text><rect height="22" width="22.68768310546875" y="90" x="187.237060546875" class="er attributeBoxEven"/><text style="dominant-baseline: middle; font-size: 10.2px;" transform="translate(192.237060546875,101)" y="0" x="0" id="text-entity-candidato-ed21d027-6009-559e-b38b-7f976c803933-attr-4-key" class="er entityLabel"/><rect height="22" width="133.3517303466797" y="90" x="209.92474365234375" class="er attributeBoxEven"/><text style="dominant-baseline: middle; font-size: 10.2px;" transform="translate(214.92474365234375,101)" y="0" x="0" id="text-entity-candidato-ed21d027-6009-559e-b38b-7f976c803933-attr-4-comment" class="er entityLabel"/><rect height="22" width="63.70890808105469" y="112" x="0" class="er attributeBoxOdd"/><text style="dominant-baseline: middle; font-size: 10.2px;" transform="translate(5,123)" y="0" x="0" id="text-entity-candidato-ed21d027-6009-559e-b38b-7f976c803933-attr-5-type" class="er entityLabel">varchar(50)</text><rect height="22" width="123.52815246582031" y="112" x="63.70890808105469" class="er attributeBoxOdd"/><text style="dominant-baseline: middle; font-size: 10.2px;" transform="translate(68.70890808105469,123)" y="0" x="0" id="text-entity-candidato-ed21d027-6009-559e-b38b-7f976c803933-attr-5-name" class="er entityLabel">partido_candidato</text><rect height="22" width="22.68768310546875" y="112" x="187.237060546875" class="er attributeBoxOdd"/><text style="dominant-baseline: middle; font-size: 10.2px;" transform="translate(192.237060546875,123)" y="0" x="0" id="text-entity-candidato-ed21d027-6009-559e-b38b-7f976c803933-attr-5-key" class="er entityLabel"/><rect height="22" width="133.3517303466797" y="112" x="209.92474365234375" class="er attributeBoxOdd"/><text style="dominant-baseline: middle; font-size: 10.2px;" transform="translate(214.92474365234375,123)" y="0" x="0" id="text-entity-candidato-ed21d027-6009-559e-b38b-7f976c803933-attr-5-comment" class="er entityLabel"/><rect height="22" width="63.70890808105469" y="134" x="0" class="er attributeBoxEven"/><text style="dominant-baseline: middle; font-size: 10.2px;" transform="translate(5,145)" y="0" x="0" id="text-entity-candidato-ed21d027-6009-559e-b38b-7f976c803933-attr-6-type" class="er entityLabel">varchar(10)</text><rect height="22" width="123.52815246582031" y="134" x="63.70890808105469" class="er attributeBoxEven"/><text style="dominant-baseline: middle; font-size: 10.2px;" transform="translate(68.70890808105469,145)" y="0" x="0" id="text-entity-candidato-ed21d027-6009-559e-b38b-7f976c803933-attr-6-name" class="er entityLabel">id_genero_candidato</text><rect height="22" width="22.68768310546875" y="134" x="187.237060546875" class="er attributeBoxEven"/><text style="dominant-baseline: middle; font-size: 10.2px;" transform="translate(192.237060546875,145)" y="0" x="0" id="text-entity-candidato-ed21d027-6009-559e-b38b-7f976c803933-attr-6-key" class="er entityLabel">FK</text><rect height="22" width="133.3517303466797" y="134" x="209.92474365234375" class="er attributeBoxEven"/><text style="dominant-baseline: middle; font-size: 10.2px;" transform="translate(214.92474365234375,145)" y="0" x="0" id="text-entity-candidato-ed21d027-6009-559e-b38b-7f976c803933-attr-6-comment" class="er entityLabel">Ref:genero(id_genero)</text><rect height="22" width="63.70890808105469" y="156" x="0" class="er attributeBoxOdd"/><text style="dominant-baseline: middle; font-size: 10.2px;" transform="translate(5,167)" y="0" x="0" id="text-entity-candidato-ed21d027-6009-559e-b38b-7f976c803933-attr-7-type" class="er entityLabel">varchar(20)</text><rect height="22" width="123.52815246582031" y="156" x="63.70890808105469" class="er attributeBoxOdd"/><text style="dominant-baseline: middle; font-size: 10.2px;" transform="translate(68.70890808105469,167)" y="0" x="0" id="text-entity-candidato-ed21d027-6009-559e-b38b-7f976c803933-attr-7-name" class="er entityLabel">id_localidad_candidato</text><rect height="22" width="22.68768310546875" y="156" x="187.237060546875" class="er attributeBoxOdd"/><text style="dominant-baseline: middle; font-size: 10.2px;" transform="translate(192.237060546875,167)" y="0" x="0" id="text-entity-candidato-ed21d027-6009-559e-b38b-7f976c803933-attr-7-key" class="er entityLabel">FK</text><rect height="22" width="133.3517303466797" y="156" x="209.92474365234375" class="er attributeBoxOdd"/><text style="dominant-baseline: middle; font-size: 10.2px;" transform="translate(214.92474365234375,167)" y="0" x="0" id="text-entity-candidato-ed21d027-6009-559e-b38b-7f976c803933-attr-7-comment" class="er entityLabel">Ref:localidad(id_localidad)</text><rect height="22" width="63.70890808105469" y="178" x="0" class="er attributeBoxEven"/><text style="dominant-baseline: middle; font-size: 10.2px;" transform="translate(5,189)" y="0" x="0" id="text-entity-candidato-ed21d027-6009-559e-b38b-7f976c803933-attr-8-type" class="er entityLabel">boolean</text><rect height="22" width="123.52815246582031" y="178" x="63.70890808105469" class="er attributeBoxEven"/><text style="dominant-baseline: middle; font-size: 10.2px;" transform="translate(68.70890808105469,189)" y="0" x="0" id="text-entity-candidato-ed21d027-6009-559e-b38b-7f976c803933-attr-8-name" class="er entityLabel">estado</text><rect height="22" width="22.68768310546875" y="178" x="187.237060546875" class="er attributeBoxEven"/><text style="dominant-baseline: middle; font-size: 10.2px;" transform="translate(192.237060546875,189)" y="0" x="0" id="text-entity-candidato-ed21d027-6009-559e-b38b-7f976c803933-attr-8-key" class="er entityLabel"/><rect height="22" width="133.3517303466797" y="178" x="209.92474365234375" class="er attributeBoxEven"/><text style="dominant-baseline: middle; font-size: 10.2px;" transform="translate(214.92474365234375,189)" y="0" x="0" id="text-entity-candidato-ed21d027-6009-559e-b38b-7f976c803933-attr-8-comment" class="er entityLabel"/></g><g transform="translate(388.55631256103516,1000 )" id="entity-localidad-815f330a-e88a-5cd8-9c00-35329d1cba10"><rect height="90" width="155.6310577392578" y="0" x="0" class="er entityBox"/><text style="dominant-baseline: middle; text-anchor: middle; font-size: 12px;" transform="translate(77.8155288696289,12)" y="0" x="0" id="text-entity-localidad-815f330a-e88a-5cd8-9c00-35329d1cba10" class="er entityLabel">localidad</text><rect height="22" width="63.70890808105469" y="24" x="0" class="er attributeBoxOdd"/><text style="dominant-baseline: middle; font-size: 10.2px;" transform="translate(5,35)" y="0" x="0" id="text-entity-localidad-815f330a-e88a-5cd8-9c00-35329d1cba10-attr-1-type" class="er entityLabel">int</text><rect height="22" width="91.92214965820312" y="24" x="63.70890808105469" class="er attributeBoxOdd"/><text style="dominant-baseline: middle; font-size: 10.2px;" transform="translate(68.70890808105469,35)" y="0" x="0" id="text-entity-localidad-815f330a-e88a-5cd8-9c00-35329d1cba10-attr-1-name" class="er entityLabel">id_localidad</text><rect height="22" width="63.70890808105469" y="46" x="0" class="er attributeBoxEven"/><text style="dominant-baseline: middle; font-size: 10.2px;" transform="translate(5,57)" y="0" x="0" id="text-entity-localidad-815f330a-e88a-5cd8-9c00-35329d1cba10-attr-2-type" class="er entityLabel">varchar(50)</text><rect height="22" width="91.92214965820312" y="46" x="63.70890808105469" class="er attributeBoxEven"/><text style="dominant-baseline: middle; font-size: 10.2px;" transform="translate(68.70890808105469,57)" y="0" x="0" id="text-entity-localidad-815f330a-e88a-5cd8-9c00-35329d1cba10-attr-2-name" class="er entityLabel">nombre_localidad</text><rect height="22" width="63.70890808105469" y="68" x="0" class="er attributeBoxOdd"/><text style="dominant-baseline: middle; font-size: 10.2px;" transform="translate(5,79)" y="0" x="0" id="text-entity-localidad-815f330a-e88a-5cd8-9c00-35329d1cba10-attr-3-type" class="er entityLabel">boolean</text><rect height="22" width="91.92214965820312" y="68" x="63.70890808105469" class="er attributeBoxOdd"/><text style="dominant-baseline: middle; font-size: 10.2px;" transform="translate(68.70890808105469,79)" y="0" x="0" id="text-entity-localidad-815f330a-e88a-5cd8-9c00-35329d1cba10-attr-3-name" class="er entityLabel">estado</text></g><g transform="translate(261.5451431274414,42 )" id="entity-genero-41e088c4-ec47-5b8e-9574-f7a842e5624c"><rect height="68" width="131.82444763183594" y="0" x="0" class="er entityBox"/><text style="dominant-baseline: middle; text-anchor: middle; font-size: 12px;" transform="translate(65.91222381591797,12)" y="0" x="0" id="text-entity-genero-41e088c4-ec47-5b8e-9574-f7a842e5624c" class="er entityLabel">genero</text><rect height="22" width="63.70890808105469" y="24" x="0" class="er attributeBoxOdd"/><text style="dominant-baseline: middle; font-size: 10.2px;" transform="translate(5,35)" y="0" x="0" id="text-entity-genero-41e088c4-ec47-5b8e-9574-f7a842e5624c-attr-1-type" class="er entityLabel">int</text><rect height="22" width="68.11553955078125" y="24" x="63.70890808105469" class="er attributeBoxOdd"/><text style="dominant-baseline: middle; font-size: 10.2px;" transform="translate(68.70890808105469,35)" y="0" x="0" id="text-entity-genero-41e088c4-ec47-5b8e-9574-f7a842e5624c-attr-1-name" class="er entityLabel">id_genero</text><rect height="22" width="63.70890808105469" y="46" x="0" class="er attributeBoxEven"/><text style="dominant-baseline: middle; font-size: 10.2px;" transform="translate(5,57)" y="0" x="0" id="text-entity-genero-41e088c4-ec47-5b8e-9574-f7a842e5624c-attr-2-type" class="er entityLabel">varchar(20)</text><rect height="22" width="68.11553955078125" y="46" x="63.70890808105469" class="er attributeBoxEven"/><text style="dominant-baseline: middle; font-size: 10.2px;" transform="translate(68.70890808105469,57)" y="0" x="0" id="text-entity-genero-41e088c4-ec47-5b8e-9574-f7a842e5624c-attr-2-name" class="er entityLabel">item_genero</text></g><g transform="translate(493.36959075927734,20 )" id="entity-voto-4eb85d14-3af8-5aaf-afab-c778c1cd4d2a"><rect height="112" width="192.01332092285156" y="0" x="0" class="er entityBox"/><text style="dominant-baseline: middle; text-anchor: middle; font-size: 12px;" transform="translate(96.00666046142578,12)" y="0" x="0" id="text-entity-voto-4eb85d14-3af8-5aaf-afab-c778c1cd4d2a" class="er entityLabel">voto</text><rect height="22" width="63.70890808105469" y="24" x="0" class="er attributeBoxOdd"/><text style="dominant-baseline: middle; font-size: 10.2px;" transform="translate(5,35)" y="0" x="0" id="text-entity-voto-4eb85d14-3af8-5aaf-afab-c778c1cd4d2a-attr-1-type" class="er entityLabel">int</text><rect height="22" width="128.30441284179688" y="24" x="63.70890808105469" class="er attributeBoxOdd"/><text style="dominant-baseline: middle; font-size: 10.2px;" transform="translate(68.70890808105469,35)" y="0" x="0" id="text-entity-voto-4eb85d14-3af8-5aaf-afab-c778c1cd4d2a-attr-1-name" class="er entityLabel">id_voto</text><rect height="22" width="63.70890808105469" y="46" x="0" class="er attributeBoxEven"/><text style="dominant-baseline: middle; font-size: 10.2px;" transform="translate(5,57)" y="0" x="0" id="text-entity-voto-4eb85d14-3af8-5aaf-afab-c778c1cd4d2a-attr-2-type" class="er entityLabel">varchar(20)</text><rect height="22" width="128.30441284179688" y="46" x="63.70890808105469" class="er attributeBoxEven"/><text style="dominant-baseline: middle; font-size: 10.2px;" transform="translate(68.70890808105469,57)" y="0" x="0" id="text-entity-voto-4eb85d14-3af8-5aaf-afab-c778c1cd4d2a-attr-2-name" class="er entityLabel">no_documento_votante</text><rect height="22" width="63.70890808105469" y="68" x="0" class="er attributeBoxOdd"/><text style="dominant-baseline: middle; font-size: 10.2px;" transform="translate(5,79)" y="0" x="0" id="text-entity-voto-4eb85d14-3af8-5aaf-afab-c778c1cd4d2a-attr-3-type" class="er entityLabel">varchar(20)</text><rect height="22" width="128.30441284179688" y="68" x="63.70890808105469" class="er attributeBoxOdd"/><text style="dominant-baseline: middle; font-size: 10.2px;" transform="translate(68.70890808105469,79)" y="0" x="0" id="text-entity-voto-4eb85d14-3af8-5aaf-afab-c778c1cd4d2a-attr-3-name" class="er entityLabel">no_documento_candidato</text><rect height="22" width="63.70890808105469" y="90" x="0" class="er attributeBoxEven"/><text style="dominant-baseline: middle; font-size: 10.2px;" transform="translate(5,101)" y="0" x="0" id="text-entity-voto-4eb85d14-3af8-5aaf-afab-c778c1cd4d2a-attr-4-type" class="er entityLabel">boolean</text><rect height="22" width="128.30441284179688" y="90" x="63.70890808105469" class="er attributeBoxEven"/><text style="dominant-baseline: middle; font-size: 10.2px;" transform="translate(68.70890808105469,101)" y="0" x="0" id="text-entity-voto-4eb85d14-3af8-5aaf-afab-c778c1cd4d2a-attr-4-name" class="er entityLabel">estado</text></g><rect height="14" width="113.248046875" y="953.0484008789062" x="291.7110290527344" class="er relationshipLabelBox"/><text style="text-anchor: middle; dominant-baseline: middle; font-size: 12px;" y="960.0484008789062" x="348.3350524902344" id="rel482" class="er relationshipLabel">id_localidad_votante</text><rect height="14" width="120.595703125" y="670.9579467773438" x="142.72174072265625" class="er relationshipLabelBox"/><text style="text-anchor: middle; dominant-baseline: middle; font-size: 12px;" y="677.9579467773438" x="203.01959228515625" id="rel483" class="er relationshipLabel">id_tipo_documento_id</text><rect height="14" width="104.44140625" y="475" x="139.41754150390625" class="er relationshipLabelBox"/><text style="text-anchor: middle; dominant-baseline: middle; font-size: 12px;" y="482" x="191.63824462890625" id="rel484" class="er relationshipLabel">id_tipo_documento</text><rect height="14" width="125.212890625" y="622.603759765625" x="589.5845336914062" class="er relationshipLabelBox"/><text style="text-anchor: middle; dominant-baseline: middle; font-size: 12px;" y="629.603759765625" x="652.1909790039062" id="rel485" class="er relationshipLabel">id_localidad_candidato</text><rect height="14" width="113.125" y="154.25550842285156" x="165.77926635742188" class="er relationshipLabelBox"/><text style="text-anchor: middle; dominant-baseline: middle; font-size: 12px;" y="161.25550842285156" x="222.34176635742188" id="rel486" class="er relationshipLabel">id_genero_candidato</text><rect height="14" width="101.16015625" y="399.804443359375" x="412.6964111328125" class="er relationshipLabelBox"/><text style="text-anchor: middle; dominant-baseline: middle; font-size: 12px;" y="406.804443359375" x="463.2764892578125" id="rel487" class="er relationshipLabel">id_genero_votante</text></svg>